<?xml version="1.0" encoding="utf-8"?>
<!-- Generator: Adobe Illustrator 23.0.0, SVG Export Plug-In . SVG Version: 6.00 Build 0)  -->
<svg version="1.1" xmlns="http://www.w3.org/2000/svg" xmlns:xlink="http://www.w3.org/1999/xlink" x="0px" y="0px"
	 viewBox="0 0 166 210.2" style="enable-background:new 0 0 166 210.2;" xml:space="preserve">
<style type="text/css">
	.st0{display:none;}
	.st1{display:inline;}
	.st2{fill:#F21F0F;}
	.st3{fill:#FFFFFF;}
</style>
<g id="Фон_xA0_Изображение_1_" class="st0">
	
		<image style="display:inline;overflow:visible;" width="900" height="900" id="Фон_xA0_Изображение" xlink:href="F0361AE4.jpg"  transform="matrix(0.24 0 0 0.24 -24.28 -2.68)">
	</image>
</g>
<g id="красный_1_" class="st0">
	<g id="Группа_1_копия_xA0_Изображение_1_" class="st1">
		
			<image style="overflow:visible;" width="590" height="827" id="Группа_1_копия_xA0_Изображение" xlink:href="F0361AE4.png"  transform="matrix(0.24 0 0 0.24 12.68 14.84)">
		</image>
	</g>
	<g id="Слой_7_xA0_Изображение_1_" class="st1">
		
			<image style="overflow:visible;" width="590" height="497" id="Слой_7_xA0_Изображение" xlink:href="F0361AE3.png"  transform="matrix(0.24 0 0 0.24 12.68 10.04)">
		</image>
	</g>
	<g id="Слой_21_xA0_Изображение_1_" class="st1">
		
			<image style="overflow:visible;" width="158" height="142" id="Слой_21_xA0_Изображение" xlink:href="F0361AEC.png"  transform="matrix(0.24 0 0 0.24 87.32 92.36)">
		</image>
	</g>
	<g id="Слой_20_xA0_Изображение_1_" class="st1">
		
			<image style="overflow:visible;" width="158" height="142" id="Слой_20_xA0_Изображение" xlink:href="F0361AEF.png"  transform="matrix(0.24 0 0 0.24 43.88 92.36)">
		</image>
	</g>
	<g id="Слой_19_xA0_Изображение_1_" class="st1">
		
			<image style="overflow:visible;" width="146" height="138" id="Слой_19_xA0_Изображение" xlink:href="F0361AED.png"  transform="matrix(0.24 0 0 0.24 89 39.32)">
		</image>
	</g>
	<g id="Слой_18_xA0_Изображение_1_" class="st1">
		
			<image style="overflow:visible;" width="159" height="134" id="Слой_18_xA0_Изображение" xlink:href="F0361AE2.png"  transform="matrix(0.24 0 0 0.24 43.64 39.32)">
		</image>
	</g>
</g>
<g id="Слой_9">
	<path class="st2" d="M141.2,10H25.7c-7.2,0-13,5.8-13,13v128.5h140.9c0.3,0,0.6-0.3,0.6-0.6V23.1C154.2,15.9,148.4,10,141.2,10z"/>
	<polygon class="st2" points="12.7,200 83.4,156.8 154.2,200 154.2,135.2 70.9,135.2 12.7,134.3 	"/>
</g>
<g id="n">
	<path class="st3" d="M43.6,40.8c0,0,8.2,0.1,9.2,0c0.9-0.1,1.6-0.7,1.6-0.7l3.1,0.9v6.5c0,0,1.2-8.1,10.9-8.1
		c10.7,1.3,9.7,9.9,9.7,11.1s0,17.5,0,17.5h3.7v3.2H63.6v-3.2h2.2V48.2c0,0-0.1-2.8-2.9-3.1c-3.6,0.4-3.3,4.3-3.3,4.3v18.4h2.3v3.2
		H43.6v-3.2l3.4,0V44h-3.4V40.8"/>
</g>
<g id="о_1_">
	<path class="st3" d="M106.5,39.3c1.2-0.3,16.9,0,17.5,17C122.5,73.1,106.5,72,106.5,72S89.5,73.3,89,55
		C89.8,38.3,105.3,39.6,106.5,39.3z"/>
</g>
<g id="о">
	<path class="st2" d="M106.8,42.9c-3.1,0-3.6,5.9-3.7,7c-0.3,3.1-0.3,8.7,0,11.5c0.3,1.3,0.3,7.4,3.7,7.7c3.3,0.4,3.8-6.5,3.8-8.4
		s0.4-4.7,0-10.7C110.5,48.7,109.9,42.9,106.8,42.9z"/>
</g>
<g id="в">
	<polyline class="st3" points="43.9,92.8 64.9,92.8 64.9,96.2 62.1,96.2 68.5,110.8 74,96.1 69.6,96.1 69.5,92.8 81.8,92.8 
		81.8,96.2 78.2,96.2 67,126.1 60.4,126.1 47.5,96.1 43.9,96.1 43.9,92.8 	"/>
</g>
<g id="а">
	<path class="st3" d="M88.4,102.1c0.5-6.5,8.3-8.2,8.3-8.2s8.1-1.6,13-0.6c4.9,1,9.2,4.9,9.2,8.8s0,14.9,0,16.3
		c-0.1,3.4,2,3.3,2.6,1.6c0.6-1.7,0.6-4.3,0.6-4.3h3.1c0,0,0.7,9.2-6,10.1c-5,0.7-6.2,0.1-8.3-1c-3.2-2.6-3.7-6.4-3.7-6.4
		s-1.7,6.5-7.6,7.4c-5.9,0.9-8.5-1-8.5-1s-3.1-1.8-3.8-4.7c-0.5-2.4,0-3.6,0-3.6s0.7-4.1,4.1-6.1c3.5-2.1,6.9-2.1,8.3-2.1
		c1.4,0,5.9,0.1,5.9,0.1s0.1-3.3,0-7c-0.1-3.6-2.9-5.4-4.9-5.5c-2-0.2-4.6,0.5-4.6,0.5s3.7,2.3,3.7,5.9c0,6.3-6.1,5.6-6.1,5.6
		S88.8,107.8,88.4,102.1z"/>
</g>
<g id="Слой_15">
	<path class="st2" d="M105.7,111c0,0,0.5,7-2,8.1c-2.6,0.9-3.7-2.8-3.2-5C101.2,111.4,105.7,111,105.7,111z"/>
</g>
</svg>
